<?xml version="1.0" standalone="no"?>
<!DOCTYPE svg PUBLIC "-//W3C//DTD SVG 20010904//EN"
 "http://www.w3.org/TR/2001/REC-SVG-20010904/DTD/svg10.dtd">
<svg version="1.0" xmlns="http://www.w3.org/2000/svg"
 width="188.000000pt" height="155.000000pt" viewBox="0 0 188.000000 155.000000"
 preserveAspectRatio="xMidYMid meet">
<metadata>
Created by potrace 1.16, written by Peter Selinger 2001-2019
</metadata>
<g transform="translate(0.000000,155.000000) scale(0.100000,-0.100000)"
fill="#000000" stroke="none">
<path d="M775 1401 c-16 -10 -42 -32 -58 -50 -15 -17 -34 -31 -42 -31 -9 0
-34 -9 -56 -21 -30 -15 -46 -32 -61 -66 -38 -85 -1 -173 87 -209 l45 -19 0
-77 0 -78 205 0 205 0 0 78 0 77 49 18 c90 32 141 103 141 196 0 61 -13 97
-48 134 -56 59 -126 76 -215 52 -52 -13 -61 -13 -87 0 -41 21 -128 19 -165 -4z
m167 -17 c25 -13 34 -13 74 1 85 29 176 9 221 -49 32 -40 47 -115 33 -165 -13
-50 -63 -109 -107 -127 -52 -22 -57 -16 -20 27 35 40 53 79 37 79 -5 0 -17
-16 -26 -35 -32 -68 -62 -80 -211 -83 -130 -3 -133 -3 -158 22 -14 14 -25 34
-25 46 0 11 -4 20 -10 20 -17 0 -11 -36 11 -64 l20 -26 -22 0 c-24 0 -89 63
-89 86 0 8 -4 13 -10 9 -13 -8 -2 -35 28 -67 l26 -28 -25 0 c-38 0 -91 33
-111 71 -44 78 -1 176 87 201 23 6 53 25 70 45 53 60 135 74 207 37z m138
-444 l0 -70 -185 0 -185 0 0 70 0 70 185 0 185 0 0 -70z"/>
<path d="M1072 1110 c-12 -16 -22 -35 -22 -42 1 -18 50 39 50 58 0 20 -3 18
-28 -16z"/>
<path d="M387 633 c-19 -32 -48 -85 -65 -118 -30 -59 -80 -105 -115 -105 -31
0 -28 20 7 41 38 22 39 44 3 33 -21 -6 -21 -5 -5 11 9 10 29 18 45 19 37 1 47
36 10 36 -35 0 -92 -42 -92 -68 0 -12 -6 -27 -13 -34 -34 -34 6 -75 61 -62 18
4 38 7 46 5 8 -1 40 26 73 61 l59 63 -21 -42 c-34 -70 -20 -104 33 -84 13 5
30 5 39 0 11 -6 27 -1 52 16 34 23 36 23 36 5 0 -19 12 -25 35 -20 6 1 23 2
39 2 16 -1 40 7 55 16 l26 17 -22 -30 c-11 -16 -33 -41 -47 -54 -27 -25 -35
-71 -13 -71 7 0 30 20 50 45 49 58 109 104 115 87 12 -36 94 2 131 62 31 49
28 73 -10 81 -37 8 -71 -13 -109 -68 -14 -20 -38 -46 -55 -59 l-30 -23 29 50
c16 28 35 59 43 70 19 29 16 35 -18 35 -42 0 -95 -27 -122 -62 -12 -15 -32
-41 -44 -56 -22 -27 -22 -27 -23 -4 0 12 9 40 20 62 11 22 20 42 20 45 0 3
-21 5 -46 5 -41 0 -51 -5 -83 -38 -20 -21 -44 -51 -54 -66 -30 -44 -39 -19
-12 34 14 27 25 56 25 65 0 25 -32 17 -68 -17 l-34 -33 17 35 c10 19 35 62 56
96 43 68 45 74 25 74 -8 0 -30 -26 -49 -57z m153 -153 c-29 -37 -58 -60 -75
-60 -15 0 33 64 60 81 46 29 50 23 15 -21z m155 -10 c-49 -50 -65 -60 -65 -39
0 18 76 89 96 89 14 0 6 -13 -31 -50z m198 44 c4 -4 -1 -20 -11 -36 -21 -37
-68 -72 -77 -58 -8 13 21 66 47 84 25 18 32 19 41 10z"/>
<path d="M1038 648 c-106 -115 -133 -293 -40 -260 17 6 35 6 43 1 9 -5 25 -1
45 10 31 18 32 18 48 0 12 -14 21 -17 34 -10 9 5 31 6 48 4 39 -6 73 15 108
66 36 51 34 78 -5 86 -37 8 -72 -13 -106 -66 -41 -63 -50 -73 -56 -63 -3 6 5
34 19 63 13 29 24 55 24 57 0 2 -20 4 -45 4 -37 0 -52 -6 -84 -35 -21 -20 -42
-46 -45 -59 -9 -38 -56 -46 -56 -10 0 7 23 42 51 76 93 116 119 178 73 178 -9
0 -34 -19 -56 -42z m42 -2 c0 -7 -22 -44 -50 -82 -51 -70 -62 -77 -34 -21 15
29 75 116 82 117 1 0 2 -6 2 -14z m51 -165 c-22 -31 -59 -61 -73 -61 -18 0 25
62 55 80 40 24 45 19 18 -19z m183 31 c8 -13 -44 -81 -66 -88 -27 -8 -32 0
-18 28 27 52 70 82 84 60z"/>
<path d="M1728 673 c-9 -10 -31 -43 -50 -74 -18 -31 -38 -54 -45 -52 -24 8
-85 -31 -111 -71 -54 -85 -90 -85 -42 0 16 29 30 58 30 64 0 17 -36 11 -66
-12 -19 -15 -24 -17 -15 -5 16 21 6 35 -15 22 -24 -16 -93 -139 -84 -149 6 -5
36 19 75 60 l65 69 -25 -49 c-14 -27 -25 -55 -25 -62 0 -19 32 -33 55 -24 11
4 31 6 45 3 18 -3 34 3 53 21 l27 25 0 -24 c0 -27 16 -35 46 -24 11 4 27 3 35
-1 9 -6 26 -2 47 10 40 24 42 24 42 6 0 -8 6 -16 13 -19 17 -6 63 19 71 39 10
27 -2 29 -28 5 -34 -32 -39 -13 -10 48 13 29 24 55 24 57 0 2 -21 4 -46 4 -41
0 -51 -5 -83 -38 -20 -21 -44 -51 -54 -66 -10 -14 -22 -24 -27 -21 -11 7 44
120 96 203 19 29 34 57 34 62 0 15 -15 12 -32 -7z m-114 -175 c-62 -75 -84
-93 -84 -67 0 16 75 89 90 89 9 0 7 -7 -6 -22z m176 12 c0 -14 -75 -90 -90
-90 -17 0 13 47 49 77 28 25 41 29 41 13z"/>
<path d="M189 665 c-29 -16 -121 -22 -162 -10 -26 7 -28 6 -25 -16 3 -23 7
-24 70 -23 47 0 65 -3 60 -10 -5 -6 -30 -44 -56 -83 -26 -40 -54 -73 -62 -73
-9 0 -14 -12 -14 -36 0 -24 4 -34 13 -32 6 2 40 46 75 98 90 137 107 156 141
163 18 4 31 13 31 22 0 19 -36 19 -71 0z"/>
<path d="M141 113 c1 -32 4 -48 6 -35 3 17 11 22 33 22 20 0 31 6 35 20 9 28
-11 50 -46 50 -29 0 -29 -1 -28 -57z m63 31 c9 -22 -1 -34 -30 -34 -19 0 -24
5 -24 25 0 20 5 25 24 25 13 0 27 -7 30 -16z"/>
<path d="M476 148 c-9 -36 -7 -88 4 -88 6 0 10 16 10 35 0 21 5 35 13 35 8 0
7 4 -3 10 -13 9 -13 11 0 20 13 8 13 10 -1 10 -9 0 -19 -10 -23 -22z"/>
<path d="M1141 115 l2 -60 7 50 c4 28 3 54 -1 60 -5 5 -8 -16 -8 -50z"/>
<path d="M1222 125 l-3 -50 -29 35 c-16 19 -29 31 -29 25 0 -15 58 -80 64 -73
4 3 4 30 2 59 l-3 54 -2 -50z"/>
<path d="M1660 121 c0 -33 5 -53 17 -62 15 -12 16 -12 10 4 -4 10 -7 39 -7 63
0 24 -4 44 -10 44 -5 0 -10 -22 -10 -49z"/>
<path d="M1357 148 c-6 -17 3 -80 13 -91 4 -5 11 -4 14 2 4 6 2 11 -4 11 -6 0
-10 16 -8 40 2 40 -6 62 -15 38z"/>
<path d="M246 132 c-3 -5 5 -8 17 -8 18 1 22 -4 22 -31 0 -18 5 -33 11 -33 7
0 9 13 5 38 -5 28 -12 38 -28 40 -11 2 -24 -1 -27 -6z"/>
<path d="M331 95 c2 -28 3 -32 6 -13 5 31 30 56 43 42 4 -5 11 -22 13 -39 3
-22 4 -19 3 10 -1 38 -3 40 -33 40 -32 1 -33 0 -32 -40z"/>
<path d="M583 133 c-22 -8 -15 -61 8 -74 17 -9 24 -8 38 6 15 16 15 17 -5 7
-27 -14 -47 0 -42 29 2 20 8 24 33 22 22 -2 26 0 15 7 -16 10 -28 11 -47 3z"/>
<path d="M686 133 c24 -5 37 -46 21 -62 -8 -8 -6 -11 6 -11 12 0 17 8 17 28 0
34 -17 52 -44 51 -20 -2 -20 -2 0 -6z"/>
<path d="M760 125 c-15 -18 -6 -61 15 -69 19 -7 45 3 45 16 0 6 -7 5 -16 -2
-12 -11 -18 -10 -32 4 -21 21 -5 51 26 50 12 0 19 3 16 8 -8 13 -41 9 -54 -7z"/>
<path d="M896 124 c-21 -21 -20 -37 3 -58 15 -14 24 -15 39 -7 28 15 33 35 16
60 -18 25 -37 27 -58 5z m52 -25 c4 -32 -21 -45 -43 -23 -11 12 -12 20 -4 35
14 28 43 20 47 -12z"/>
<path d="M992 95 c1 -36 2 -37 5 -8 7 55 52 55 54 0 1 -19 3 -24 6 -14 3 10 2
29 -1 42 -5 19 -12 24 -36 22 -28 -2 -30 -4 -28 -42z"/>
<path d="M1266 132 c-3 -5 6 -7 21 -4 24 5 25 3 21 -32 -2 -23 0 -36 7 -36 8
0 10 13 6 38 -5 28 -12 38 -28 40 -11 2 -24 -1 -27 -6z"/>
<path d="M1412 109 c-2 -42 20 -68 41 -50 8 6 17 8 20 4 4 -3 6 14 6 38 -2 34
-3 37 -6 14 -10 -64 -48 -66 -56 -2 -4 32 -4 32 -5 -4z"/>
<path d="M1511 95 c1 -27 3 -32 6 -15 3 14 11 32 19 40 11 14 11 16 -6 16 -17
0 -20 -7 -19 -41z"/>
<path d="M1598 133 c21 -4 23 -9 20 -39 -2 -21 0 -34 7 -34 8 0 10 13 6 38 -5
31 -11 37 -31 39 -24 1 -24 1 -2 -4z"/>
<path d="M245 96 c-16 -12 -17 -16 -6 -30 7 -9 19 -16 25 -16 6 0 4 5 -4 10
-12 8 -13 13 -2 30 14 24 12 25 -13 6z"/>
<path d="M1265 96 c-16 -12 -17 -16 -6 -30 7 -9 18 -16 23 -16 6 0 5 7 -2 15
-10 12 -10 18 0 30 16 19 10 19 -15 1z"/>
<path d="M1583 103 c-19 -7 -16 -40 3 -47 15 -6 15 -4 3 10 -11 14 -11 18 6
30 18 14 12 17 -12 7z"/>
</g>
</svg>
